<svg width="39" height="39" viewBox="0 0 39 39" fill="none" xmlns="http://www.w3.org/2000/svg">
<path d="M23.1562 12.7969C23.1562 13.1333 22.8832 13.4063 22.5468 13.4063H16.4531C16.1167 13.4063 15.8437 13.1333 15.8437 12.7969C15.8437 12.4605 16.1167 12.1875 16.4531 12.1875H22.5468C22.8832 12.1875 23.1562 12.4605 23.1562 12.7969ZM22.5468 14.625H16.4531C16.1167 14.625 15.8437 14.898 15.8437 15.2344C15.8437 15.5708 16.1167 15.8438 16.4531 15.8438H22.5468C22.8832 15.8438 23.1562 15.5708 23.1562 15.2344C23.1562 14.898 22.8832 14.625 22.5468 14.625ZM32.4589 31.2475L27.629 30.5114L25.8508 35.0622C25.4572 36.0701 24.0422 36.103 23.6022 35.1146L19.4999 25.896L15.3976 35.1146C14.9576 36.103 13.5427 36.0713 13.149 35.0622L11.3709 30.5126L6.54096 31.2488C5.4709 31.4121 4.73477 30.2031 5.37218 29.328L10.77 21.9009C8.63355 19.7048 7.31243 16.7115 7.31243 13.4063C7.31243 6.2205 13.5305 0.4875 20.8783 1.29431C26.5224 1.91344 31.0829 6.54713 31.6289 12.1985C31.9933 15.9778 30.6247 19.4403 28.2311 21.8997L33.6289 29.3268C34.2639 30.2018 33.529 31.4108 32.4589 31.2475ZM18.3275 25.534C15.8022 25.2927 13.5049 24.2812 11.6682 22.737L6.35937 30.0422L12.1533 29.1598L14.2861 34.6186L18.3275 25.534ZM19.4999 24.375C25.5486 24.375 30.4687 19.4549 30.4687 13.4063C30.4687 7.3576 25.5486 2.4375 19.4999 2.4375C13.4513 2.4375 8.53118 7.3576 8.53118 13.4063C8.53118 19.4549 13.4513 24.375 19.4999 24.375ZM32.6417 30.0434L27.3328 22.7382C25.495 24.2824 23.1976 25.2939 20.6736 25.5353L24.7162 34.6198L26.849 29.161L32.6417 30.0434ZM29.2499 13.4063C29.2499 18.7907 24.8844 23.1563 19.4999 23.1563C14.1155 23.1563 9.74993 18.7907 9.74993 13.4063C9.74993 8.02181 14.1155 3.65625 19.4999 3.65625C24.8844 3.65625 29.2499 8.02181 29.2499 13.4063ZM28.0312 13.4063C28.0312 8.70188 24.2043 4.875 19.4999 4.875C14.7956 4.875 10.9687 8.70188 10.9687 13.4063C10.9687 18.1106 14.7956 21.9375 19.4999 21.9375C24.2043 21.9375 28.0312 18.1106 28.0312 13.4063ZM22.5468 9.75H16.4531C16.1167 9.75 15.8437 10.023 15.8437 10.3594C15.8437 10.6958 16.1167 10.9688 16.4531 10.9688H22.5468C22.8832 10.9688 23.1562 10.6958 23.1562 10.3594C23.1562 10.023 22.8832 9.75 22.5468 9.75Z" fill="#111918"/>
</svg>
