<svg width="294" height="43" viewBox="0 0 294 43" fill="none" xmlns="http://www.w3.org/2000/svg">
<g filter="url(#filter0_d_21_7231)">
<rect x="4" width="286" height="35" rx="4" fill="#5281B8"/>
<path d="M16.3106 23.18C15.7806 23.18 15.3056 23.12 14.8856 23C14.4756 22.89 14.1256 22.74 13.8356 22.55C13.5556 22.36 13.3406 22.15 13.1906 21.92C13.0406 21.68 12.9656 21.44 12.9656 21.2C12.9656 20.9 13.0456 20.66 13.2056 20.48C13.3756 20.29 13.5956 20.195 13.8656 20.195C14.1356 20.195 14.3506 20.285 14.5106 20.465C14.6706 20.635 14.7506 20.855 14.7506 21.125C14.7506 21.345 14.6906 21.535 14.5706 21.695C14.4606 21.855 14.3456 21.96 14.2256 22.01V22.04C14.3956 22.15 14.6406 22.245 14.9606 22.325C15.2906 22.405 15.6806 22.445 16.1306 22.445C16.9806 22.445 17.6256 22.255 18.0656 21.875C18.5056 21.495 18.7256 20.99 18.7256 20.36V19.91C18.7256 19.32 18.5606 18.86 18.2306 18.53C17.9106 18.2 17.4356 18.035 16.8056 18.035H15.0956V17.3H16.7006C17.2406 17.3 17.6806 17.135 18.0206 16.805C18.3606 16.465 18.5306 16.015 18.5306 15.455V14.915C18.5306 14.385 18.3656 13.95 18.0356 13.61C17.7156 13.26 17.2206 13.085 16.5506 13.085C16.2106 13.085 15.9006 13.13 15.6206 13.22C15.3406 13.3 15.0956 13.42 14.8856 13.58C14.6856 13.73 14.5306 13.91 14.4206 14.12C14.3106 14.33 14.2556 14.555 14.2556 14.795V15.725H13.1756V12.53H14.2556V13.46H14.3156C14.5256 13.14 14.8306 12.875 15.2306 12.665C15.6406 12.455 16.1756 12.35 16.8356 12.35C17.3256 12.35 17.7606 12.415 18.1406 12.545C18.5306 12.675 18.8556 12.86 19.1156 13.1C19.3856 13.33 19.5906 13.61 19.7306 13.94C19.8706 14.26 19.9406 14.615 19.9406 15.005C19.9406 15.365 19.8856 15.69 19.7756 15.98C19.6756 16.27 19.5306 16.525 19.3406 16.745C19.1506 16.955 18.9306 17.13 18.6806 17.27C18.4306 17.41 18.1556 17.51 17.8556 17.57V17.63C18.1456 17.68 18.4256 17.76 18.6956 17.87C18.9756 17.98 19.2206 18.135 19.4306 18.335C19.6406 18.535 19.8106 18.785 19.9406 19.085C20.0706 19.375 20.1356 19.725 20.1356 20.135C20.1356 20.585 20.0406 21 19.8506 21.38C19.6706 21.75 19.4106 22.07 19.0706 22.34C18.7406 22.61 18.3406 22.82 17.8706 22.97C17.4006 23.11 16.8806 23.18 16.3106 23.18ZM24.1783 23.18C23.4583 23.18 22.8933 22.995 22.4833 22.625C22.0833 22.245 21.8833 21.73 21.8833 21.08C21.8833 20.71 21.9433 20.385 22.0633 20.105C22.1833 19.815 22.3783 19.575 22.6483 19.385C22.9283 19.195 23.2883 19.05 23.7283 18.95C24.1683 18.85 24.7033 18.8 25.3333 18.8H26.4433V17.66C26.4433 17.05 26.2933 16.585 25.9933 16.265C25.7033 15.935 25.2633 15.77 24.6733 15.77C24.4133 15.77 24.1733 15.795 23.9533 15.845C23.7333 15.885 23.5533 15.945 23.4133 16.025V16.055C23.5233 16.115 23.6283 16.205 23.7283 16.325C23.8383 16.445 23.8933 16.615 23.8933 16.835C23.8933 17.095 23.8183 17.3 23.6683 17.45C23.5183 17.59 23.3183 17.66 23.0683 17.66C22.8283 17.66 22.6283 17.59 22.4683 17.45C22.3183 17.3 22.2433 17.08 22.2433 16.79C22.2433 16.57 22.3083 16.36 22.4383 16.16C22.5683 15.95 22.7533 15.765 22.9933 15.605C23.2333 15.445 23.5283 15.32 23.8783 15.23C24.2383 15.13 24.6433 15.08 25.0933 15.08C25.9033 15.08 26.5333 15.29 26.9833 15.71C27.4433 16.13 27.6733 16.72 27.6733 17.48V22.355H28.7983V22.88C28.6883 22.96 28.5383 23.03 28.3483 23.09C28.1683 23.15 27.9633 23.18 27.7333 23.18C27.3433 23.18 27.0433 23.07 26.8333 22.85C26.6233 22.63 26.5183 22.335 26.5183 21.965V21.86H26.4433C26.3733 22.03 26.2783 22.195 26.1583 22.355C26.0483 22.515 25.9033 22.655 25.7233 22.775C25.5433 22.895 25.3233 22.99 25.0633 23.06C24.8133 23.14 24.5183 23.18 24.1783 23.18ZM24.7033 22.355C25.1833 22.355 25.5933 22.235 25.9333 21.995C26.2733 21.745 26.4433 21.365 26.4433 20.855V19.4H25.4683C25.0383 19.4 24.6783 19.435 24.3883 19.505C24.0983 19.565 23.8683 19.66 23.6983 19.79C23.5283 19.91 23.4033 20.06 23.3233 20.24C23.2533 20.42 23.2183 20.63 23.2183 20.87V21.185C23.2183 21.565 23.3483 21.855 23.6083 22.055C23.8683 22.255 24.2333 22.355 24.7033 22.355ZM29.9218 25.31H31.0318V16.235L29.9218 16.04V15.53L32.2618 15.08V16.43H32.3218C32.4918 16.06 32.7618 15.745 33.1318 15.485C33.5018 15.215 33.9918 15.08 34.6018 15.08C35.5618 15.08 36.3268 15.43 36.8968 16.13C37.4768 16.82 37.7668 17.82 37.7668 19.13C37.7668 20.44 37.4768 21.445 36.8968 22.145C36.3268 22.835 35.5618 23.18 34.6018 23.18C34.0018 23.18 33.5118 23.05 33.1318 22.79C32.7618 22.53 32.4918 22.215 32.3218 21.845H32.2618V25.31H33.6718V26H29.9218V25.31ZM34.2418 22.325C34.9318 22.325 35.4668 22.095 35.8468 21.635C36.2368 21.165 36.4318 20.54 36.4318 19.76V18.5C36.4318 17.72 36.2368 17.1 35.8468 16.64C35.4668 16.17 34.9318 15.935 34.2418 15.935C34.0018 15.935 33.7618 15.97 33.5218 16.04C33.2818 16.11 33.0668 16.21 32.8768 16.34C32.6968 16.47 32.5468 16.635 32.4268 16.835C32.3168 17.025 32.2618 17.24 32.2618 17.48V20.78C32.2618 21.02 32.3168 21.24 32.4268 21.44C32.5468 21.63 32.6968 21.79 32.8768 21.92C33.0668 22.05 33.2818 22.15 33.5218 22.22C33.7618 22.29 34.0018 22.325 34.2418 22.325ZM42.8525 23.18C42.3025 23.18 41.8075 23.085 41.3675 22.895C40.9375 22.695 40.5725 22.42 40.2725 22.07C39.9725 21.72 39.7425 21.295 39.5825 20.795C39.4225 20.295 39.3425 19.74 39.3425 19.13C39.3425 18.53 39.4275 17.985 39.5975 17.495C39.7775 16.995 40.0175 16.565 40.3175 16.205C40.6275 15.845 40.9925 15.57 41.4125 15.38C41.8325 15.18 42.2925 15.08 42.7925 15.08C43.3025 15.08 43.7575 15.17 44.1575 15.35C44.5575 15.53 44.8925 15.785 45.1625 16.115C45.4425 16.435 45.6575 16.82 45.8075 17.27C45.9575 17.72 46.0325 18.21 46.0325 18.74V19.085H40.7075V19.475C40.7075 20.325 40.9175 20.995 41.3375 21.485C41.7675 21.975 42.3375 22.22 43.0475 22.22C43.6675 22.22 44.1575 22.095 44.5175 21.845C44.8875 21.585 45.1775 21.25 45.3875 20.84L45.8825 21.155C45.7825 21.415 45.6425 21.67 45.4625 21.92C45.2925 22.16 45.0825 22.375 44.8325 22.565C44.5825 22.745 44.2925 22.89 43.9625 23C43.6325 23.12 43.2625 23.18 42.8525 23.18ZM40.7075 18.395H44.7425V18.245C44.7425 17.895 44.7025 17.57 44.6225 17.27C44.5525 16.97 44.4375 16.71 44.2775 16.49C44.1175 16.27 43.9125 16.1 43.6625 15.98C43.4225 15.85 43.1325 15.785 42.7925 15.785C42.4525 15.785 42.1525 15.845 41.8925 15.965C41.6325 16.085 41.4125 16.255 41.2325 16.475C41.0625 16.695 40.9325 16.955 40.8425 17.255C40.7525 17.545 40.7075 17.865 40.7075 18.215V18.395ZM47.4595 22.31H48.5695V15.935H47.4595V15.26H53.5045V17.54H52.6045V15.995H49.7995V22.31H51.2095V23H47.4595V22.31ZM54.769 22.31H55.879V15.935H54.769V15.26H58.189V15.935H57.079V18.77L56.944 20.855H56.989L60.859 16.385V15.935H59.749V15.26H63.169V15.935H62.059V22.31H63.169V23H59.749V22.31H60.859V19.505L60.994 17.405H60.934L57.079 21.875V22.31H58.189V23H54.769V22.31ZM68.1214 23.18C67.5614 23.18 67.0614 23.085 66.6214 22.895C66.1914 22.695 65.8264 22.42 65.5264 22.07C65.2264 21.71 64.9964 21.285 64.8364 20.795C64.6764 20.295 64.5964 19.74 64.5964 19.13C64.5964 18.51 64.6814 17.95 64.8514 17.45C65.0314 16.95 65.2814 16.525 65.6014 16.175C65.9214 15.825 66.3014 15.555 66.7414 15.365C67.1914 15.175 67.6864 15.08 68.2264 15.08C69.0364 15.08 69.6764 15.255 70.1464 15.605C70.6264 15.945 70.8664 16.38 70.8664 16.91C70.8664 17.23 70.7814 17.48 70.6114 17.66C70.4514 17.84 70.2264 17.93 69.9364 17.93C69.6264 17.93 69.3964 17.84 69.2464 17.66C69.0964 17.48 69.0214 17.265 69.0214 17.015C69.0214 16.795 69.0764 16.605 69.1864 16.445C69.2964 16.285 69.4514 16.16 69.6514 16.07V16.025C69.5214 15.945 69.3514 15.885 69.1414 15.845C68.9414 15.805 68.6814 15.785 68.3614 15.785C68.0114 15.785 67.6864 15.85 67.3864 15.98C67.0964 16.11 66.8464 16.295 66.6364 16.535C66.4264 16.765 66.2614 17.04 66.1414 17.36C66.0214 17.67 65.9614 18.01 65.9614 18.38V19.49C65.9614 19.9 66.0164 20.275 66.1264 20.615C66.2364 20.945 66.3914 21.23 66.5914 21.47C66.8014 21.71 67.0464 21.895 67.3264 22.025C67.6164 22.155 67.9414 22.22 68.3014 22.22C68.9114 22.22 69.3914 22.095 69.7414 21.845C70.0914 21.585 70.3714 21.25 70.5814 20.84L71.0614 21.155C70.9714 21.415 70.8414 21.67 70.6714 21.92C70.5014 22.16 70.2964 22.375 70.0564 22.565C69.8164 22.745 69.5314 22.89 69.2014 23C68.8814 23.12 68.5214 23.18 68.1214 23.18ZM73.5458 22.31H74.9558V15.995H73.0658V17.54H72.1658V15.26H78.9758V17.54H78.0758V15.995H76.1858V22.31H77.5958V23H73.5458V22.31ZM80.1513 25.31H81.2613V16.235L80.1513 16.04V15.53L82.4913 15.08V16.43H82.5513C82.7213 16.06 82.9913 15.745 83.3613 15.485C83.7313 15.215 84.2213 15.08 84.8313 15.08C85.7913 15.08 86.5563 15.43 87.1263 16.13C87.7063 16.82 87.9963 17.82 87.9963 19.13C87.9963 20.44 87.7063 21.445 87.1263 22.145C86.5563 22.835 85.7913 23.18 84.8313 23.18C84.2313 23.18 83.7413 23.05 83.3613 22.79C82.9913 22.53 82.7213 22.215 82.5513 21.845H82.4913V25.31H83.9013V26H80.1513V25.31ZM84.4713 22.325C85.1613 22.325 85.6963 22.095 86.0763 21.635C86.4663 21.165 86.6613 20.54 86.6613 19.76V18.5C86.6613 17.72 86.4663 17.1 86.0763 16.64C85.6963 16.17 85.1613 15.935 84.4713 15.935C84.2313 15.935 83.9913 15.97 83.7513 16.04C83.5113 16.11 83.2963 16.21 83.1063 16.34C82.9263 16.47 82.7763 16.635 82.6563 16.835C82.5463 17.025 82.4913 17.24 82.4913 17.48V20.78C82.4913 21.02 82.5463 21.24 82.6563 21.44C82.7763 21.63 82.9263 21.79 83.1063 21.92C83.2963 22.05 83.5113 22.15 83.7513 22.22C83.9913 22.29 84.2313 22.325 84.4713 22.325ZM89.5005 22.31H90.6105V15.935H89.5005V15.26H92.9205V15.935H91.8105V18.77L91.6755 20.855H91.7205L95.5905 16.385V15.935H94.4805V15.26H97.9005V15.935H96.7905V22.31H97.9005V23H94.4805V22.31H95.5905V19.505L95.7255 17.405H95.6655L91.8105 21.875V22.31H92.9205V23H89.5005V22.31ZM99.2528 25.31H100.363V16.235L99.2528 16.04V15.53L101.593 15.08V16.43H101.653C101.823 16.06 102.093 15.745 102.463 15.485C102.833 15.215 103.323 15.08 103.933 15.08C104.893 15.08 105.658 15.43 106.228 16.13C106.808 16.82 107.098 17.82 107.098 19.13C107.098 20.44 106.808 21.445 106.228 22.145C105.658 22.835 104.893 23.18 103.933 23.18C103.333 23.18 102.843 23.05 102.463 22.79C102.093 22.53 101.823 22.215 101.653 21.845H101.593V25.31H103.003V26H99.2528V25.31ZM103.573 22.325C104.263 22.325 104.798 22.095 105.178 21.635C105.568 21.165 105.763 20.54 105.763 19.76V18.5C105.763 17.72 105.568 17.1 105.178 16.64C104.798 16.17 104.263 15.935 103.573 15.935C103.333 15.935 103.093 15.97 102.853 16.04C102.613 16.11 102.398 16.21 102.208 16.34C102.028 16.47 101.878 16.635 101.758 16.835C101.648 17.025 101.593 17.24 101.593 17.48V20.78C101.593 21.02 101.648 21.24 101.758 21.44C101.878 21.63 102.028 21.79 102.208 21.92C102.398 22.05 102.613 22.15 102.853 22.22C103.093 22.29 103.333 22.325 103.573 22.325ZM112.229 22.445C112.599 22.445 112.919 22.385 113.189 22.265C113.469 22.135 113.694 21.96 113.864 21.74C114.044 21.51 114.174 21.245 114.254 20.945C114.344 20.635 114.389 20.3 114.389 19.94V18.32C114.389 17.96 114.344 17.63 114.254 17.33C114.174 17.02 114.044 16.755 113.864 16.535C113.694 16.305 113.469 16.13 113.189 16.01C112.919 15.88 112.599 15.815 112.229 15.815C111.849 15.815 111.524 15.88 111.254 16.01C110.984 16.13 110.759 16.305 110.579 16.535C110.409 16.755 110.279 17.02 110.189 17.33C110.109 17.63 110.069 17.96 110.069 18.32V19.94C110.069 20.3 110.109 20.635 110.189 20.945C110.279 21.245 110.409 21.51 110.579 21.74C110.759 21.96 110.984 22.135 111.254 22.265C111.524 22.385 111.849 22.445 112.229 22.445ZM112.229 23.18C111.699 23.18 111.214 23.085 110.774 22.895C110.334 22.705 109.959 22.435 109.649 22.085C109.339 21.725 109.099 21.3 108.929 20.81C108.759 20.31 108.674 19.75 108.674 19.13C108.674 18.52 108.759 17.965 108.929 17.465C109.099 16.965 109.339 16.54 109.649 16.19C109.959 15.83 110.334 15.555 110.774 15.365C111.214 15.175 111.699 15.08 112.229 15.08C112.759 15.08 113.244 15.175 113.684 15.365C114.124 15.555 114.499 15.83 114.809 16.19C115.119 16.54 115.359 16.965 115.529 17.465C115.699 17.965 115.784 18.52 115.784 19.13C115.784 19.75 115.699 20.31 115.529 20.81C115.359 21.3 115.119 21.725 114.809 22.085C114.499 22.435 114.124 22.705 113.684 22.895C113.244 23.085 112.759 23.18 112.229 23.18ZM117.201 22.31H118.311V15.935H117.201V15.26H121.521C122.241 15.26 122.796 15.43 123.186 15.77C123.576 16.11 123.771 16.555 123.771 17.105C123.771 17.675 123.616 18.1 123.306 18.38C123.006 18.66 122.641 18.845 122.211 18.935V18.995C122.431 19.015 122.646 19.07 122.856 19.16C123.076 19.25 123.271 19.375 123.441 19.535C123.611 19.685 123.751 19.875 123.861 20.105C123.971 20.325 124.026 20.585 124.026 20.885C124.026 21.595 123.806 22.125 123.366 22.475C122.936 22.825 122.331 23 121.551 23H117.201V22.31ZM121.431 22.265C121.861 22.265 122.181 22.155 122.391 21.935C122.611 21.705 122.721 21.415 122.721 21.065V20.63C122.721 20.28 122.611 19.995 122.391 19.775C122.171 19.545 121.851 19.43 121.431 19.43H119.541V22.265H121.431ZM121.281 18.695C121.661 18.695 121.951 18.59 122.151 18.38C122.361 18.16 122.466 17.89 122.466 17.57V17.12C122.466 16.8 122.361 16.535 122.151 16.325C121.951 16.105 121.661 15.995 121.281 15.995H119.541V18.695H121.281ZM127.933 23.18C127.213 23.18 126.648 22.995 126.238 22.625C125.838 22.245 125.638 21.73 125.638 21.08C125.638 20.71 125.698 20.385 125.818 20.105C125.938 19.815 126.133 19.575 126.403 19.385C126.683 19.195 127.043 19.05 127.483 18.95C127.923 18.85 128.458 18.8 129.088 18.8H130.198V17.66C130.198 17.05 130.048 16.585 129.748 16.265C129.458 15.935 129.018 15.77 128.428 15.77C128.168 15.77 127.928 15.795 127.708 15.845C127.488 15.885 127.308 15.945 127.168 16.025V16.055C127.278 16.115 127.383 16.205 127.483 16.325C127.593 16.445 127.648 16.615 127.648 16.835C127.648 17.095 127.573 17.3 127.423 17.45C127.273 17.59 127.073 17.66 126.823 17.66C126.583 17.66 126.383 17.59 126.223 17.45C126.073 17.3 125.998 17.08 125.998 16.79C125.998 16.57 126.063 16.36 126.193 16.16C126.323 15.95 126.508 15.765 126.748 15.605C126.988 15.445 127.283 15.32 127.633 15.23C127.993 15.13 128.398 15.08 128.848 15.08C129.658 15.08 130.288 15.29 130.738 15.71C131.198 16.13 131.428 16.72 131.428 17.48V22.355H132.553V22.88C132.443 22.96 132.293 23.03 132.103 23.09C131.923 23.15 131.718 23.18 131.488 23.18C131.098 23.18 130.798 23.07 130.588 22.85C130.378 22.63 130.273 22.335 130.273 21.965V21.86H130.198C130.128 22.03 130.033 22.195 129.913 22.355C129.803 22.515 129.658 22.655 129.478 22.775C129.298 22.895 129.078 22.99 128.818 23.06C128.568 23.14 128.273 23.18 127.933 23.18ZM128.458 22.355C128.938 22.355 129.348 22.235 129.688 21.995C130.028 21.745 130.198 21.365 130.198 20.855V19.4H129.223C128.793 19.4 128.433 19.435 128.143 19.505C127.853 19.565 127.623 19.66 127.453 19.79C127.283 19.91 127.158 20.06 127.078 20.24C127.008 20.42 126.973 20.63 126.973 20.87V21.185C126.973 21.565 127.103 21.855 127.363 22.055C127.623 22.255 127.988 22.355 128.458 22.355ZM134.776 22.31H136.186V15.995H134.296V17.54H133.396V15.26H140.206V17.54H139.306V15.995H137.416V22.31H138.826V23H134.776V22.31ZM141.473 22.31H142.583V15.935H141.473V15.26H144.923V15.935H143.813V18.26H145.793C146.593 18.26 147.203 18.465 147.623 18.875C148.043 19.275 148.253 19.855 148.253 20.615C148.253 21.365 148.033 21.95 147.593 22.37C147.163 22.79 146.558 23 145.778 23H141.473V22.31ZM145.598 22.265C146.048 22.265 146.378 22.14 146.588 21.89C146.798 21.63 146.903 21.305 146.903 20.915V20.345C146.903 19.945 146.798 19.62 146.588 19.37C146.378 19.12 146.048 18.995 145.598 18.995H143.813V22.265H145.598ZM153.185 23.18C152.625 23.18 152.125 23.085 151.685 22.895C151.255 22.695 150.89 22.42 150.59 22.07C150.29 21.71 150.06 21.285 149.9 20.795C149.74 20.295 149.66 19.74 149.66 19.13C149.66 18.51 149.745 17.95 149.915 17.45C150.095 16.95 150.345 16.525 150.665 16.175C150.985 15.825 151.365 15.555 151.805 15.365C152.255 15.175 152.75 15.08 153.29 15.08C154.1 15.08 154.74 15.255 155.21 15.605C155.69 15.945 155.93 16.38 155.93 16.91C155.93 17.23 155.845 17.48 155.675 17.66C155.515 17.84 155.29 17.93 155 17.93C154.69 17.93 154.46 17.84 154.31 17.66C154.16 17.48 154.085 17.265 154.085 17.015C154.085 16.795 154.14 16.605 154.25 16.445C154.36 16.285 154.515 16.16 154.715 16.07V16.025C154.585 15.945 154.415 15.885 154.205 15.845C154.005 15.805 153.745 15.785 153.425 15.785C153.075 15.785 152.75 15.85 152.45 15.98C152.16 16.11 151.91 16.295 151.7 16.535C151.49 16.765 151.325 17.04 151.205 17.36C151.085 17.67 151.025 18.01 151.025 18.38V19.49C151.025 19.9 151.08 20.275 151.19 20.615C151.3 20.945 151.455 21.23 151.655 21.47C151.865 21.71 152.11 21.895 152.39 22.025C152.68 22.155 153.005 22.22 153.365 22.22C153.975 22.22 154.455 22.095 154.805 21.845C155.155 21.585 155.435 21.25 155.645 20.84L156.125 21.155C156.035 21.415 155.905 21.67 155.735 21.92C155.565 22.16 155.36 22.375 155.12 22.565C154.88 22.745 154.595 22.89 154.265 23C153.945 23.12 153.585 23.18 153.185 23.18ZM157.152 22.31H157.992L159.267 20.3C159.427 20.04 159.582 19.85 159.732 19.73C159.892 19.61 160.077 19.535 160.287 19.505V19.475C159.567 19.445 158.992 19.25 158.562 18.89C158.132 18.53 157.917 18.055 157.917 17.465C157.917 17.165 157.967 16.885 158.067 16.625C158.167 16.355 158.317 16.12 158.517 15.92C158.727 15.71 158.982 15.55 159.282 15.44C159.582 15.32 159.937 15.26 160.347 15.26H164.682V15.935H163.572V22.31H164.682V23H161.232V22.31H162.342V19.67H161.082L158.967 23H157.152V22.31ZM162.342 18.98V15.995H160.527C160.297 15.995 160.097 16.035 159.927 16.115C159.767 16.195 159.637 16.3 159.537 16.43C159.437 16.55 159.362 16.69 159.312 16.85C159.272 17 159.252 17.15 159.252 17.3V17.675C159.252 18.065 159.367 18.38 159.597 18.62C159.827 18.86 160.137 18.98 160.527 18.98H162.342ZM173.121 23.18C172.561 23.18 172.061 23.085 171.621 22.895C171.191 22.695 170.826 22.42 170.526 22.07C170.226 21.71 169.996 21.285 169.836 20.795C169.676 20.295 169.596 19.74 169.596 19.13C169.596 18.51 169.681 17.95 169.851 17.45C170.031 16.95 170.281 16.525 170.601 16.175C170.921 15.825 171.301 15.555 171.741 15.365C172.191 15.175 172.686 15.08 173.226 15.08C174.036 15.08 174.676 15.255 175.146 15.605C175.626 15.945 175.866 16.38 175.866 16.91C175.866 17.23 175.781 17.48 175.611 17.66C175.451 17.84 175.226 17.93 174.936 17.93C174.626 17.93 174.396 17.84 174.246 17.66C174.096 17.48 174.021 17.265 174.021 17.015C174.021 16.795 174.076 16.605 174.186 16.445C174.296 16.285 174.451 16.16 174.651 16.07V16.025C174.521 15.945 174.351 15.885 174.141 15.845C173.941 15.805 173.681 15.785 173.361 15.785C173.011 15.785 172.686 15.85 172.386 15.98C172.096 16.11 171.846 16.295 171.636 16.535C171.426 16.765 171.261 17.04 171.141 17.36C171.021 17.67 170.961 18.01 170.961 18.38V19.49C170.961 19.9 171.016 20.275 171.126 20.615C171.236 20.945 171.391 21.23 171.591 21.47C171.801 21.71 172.046 21.895 172.326 22.025C172.616 22.155 172.941 22.22 173.301 22.22C173.911 22.22 174.391 22.095 174.741 21.845C175.091 21.585 175.371 21.25 175.581 20.84L176.061 21.155C175.971 21.415 175.841 21.67 175.671 21.92C175.501 22.16 175.296 22.375 175.056 22.565C174.816 22.745 174.531 22.89 174.201 23C173.881 23.12 173.521 23.18 173.121 23.18ZM180.892 22.31H182.002V15.935H180.892V15.26H189.307V15.935H188.197V22.31H189.307V23H185.857V22.31H186.967V15.995H183.232V22.31H184.342V23H180.892V22.31ZM194.289 22.445C194.659 22.445 194.979 22.385 195.249 22.265C195.529 22.135 195.754 21.96 195.924 21.74C196.104 21.51 196.234 21.245 196.314 20.945C196.404 20.635 196.449 20.3 196.449 19.94V18.32C196.449 17.96 196.404 17.63 196.314 17.33C196.234 17.02 196.104 16.755 195.924 16.535C195.754 16.305 195.529 16.13 195.249 16.01C194.979 15.88 194.659 15.815 194.289 15.815C193.909 15.815 193.584 15.88 193.314 16.01C193.044 16.13 192.819 16.305 192.639 16.535C192.469 16.755 192.339 17.02 192.249 17.33C192.169 17.63 192.129 17.96 192.129 18.32V19.94C192.129 20.3 192.169 20.635 192.249 20.945C192.339 21.245 192.469 21.51 192.639 21.74C192.819 21.96 193.044 22.135 193.314 22.265C193.584 22.385 193.909 22.445 194.289 22.445ZM194.289 23.18C193.759 23.18 193.274 23.085 192.834 22.895C192.394 22.705 192.019 22.435 191.709 22.085C191.399 21.725 191.159 21.3 190.989 20.81C190.819 20.31 190.734 19.75 190.734 19.13C190.734 18.52 190.819 17.965 190.989 17.465C191.159 16.965 191.399 16.54 191.709 16.19C192.019 15.83 192.394 15.555 192.834 15.365C193.274 15.175 193.759 15.08 194.289 15.08C194.819 15.08 195.304 15.175 195.744 15.365C196.184 15.555 196.559 15.83 196.869 16.19C197.179 16.54 197.419 16.965 197.589 17.465C197.759 17.965 197.844 18.52 197.844 19.13C197.844 19.75 197.759 20.31 197.589 20.81C197.419 21.3 197.179 21.725 196.869 22.085C196.559 22.435 196.184 22.705 195.744 22.895C195.304 23.085 194.819 23.18 194.289 23.18ZM199.261 22.31H200.386V15.935H199.261V15.26H201.991L204.211 19.7H204.271L206.476 15.26H209.056V15.935H207.946V22.31H209.056V23H205.591V22.31H206.716V16.4H206.671L206.116 17.54L204.001 21.8L201.856 17.54L201.316 16.4H201.271V22.31H202.381V23H199.261V22.31ZM214.035 22.445C214.405 22.445 214.725 22.385 214.995 22.265C215.275 22.135 215.5 21.96 215.67 21.74C215.85 21.51 215.98 21.245 216.06 20.945C216.15 20.635 216.195 20.3 216.195 19.94V18.32C216.195 17.96 216.15 17.63 216.06 17.33C215.98 17.02 215.85 16.755 215.67 16.535C215.5 16.305 215.275 16.13 214.995 16.01C214.725 15.88 214.405 15.815 214.035 15.815C213.655 15.815 213.33 15.88 213.06 16.01C212.79 16.13 212.565 16.305 212.385 16.535C212.215 16.755 212.085 17.02 211.995 17.33C211.915 17.63 211.875 17.96 211.875 18.32V19.94C211.875 20.3 211.915 20.635 211.995 20.945C212.085 21.245 212.215 21.51 212.385 21.74C212.565 21.96 212.79 22.135 213.06 22.265C213.33 22.385 213.655 22.445 214.035 22.445ZM214.035 23.18C213.505 23.18 213.02 23.085 212.58 22.895C212.14 22.705 211.765 22.435 211.455 22.085C211.145 21.725 210.905 21.3 210.735 20.81C210.565 20.31 210.48 19.75 210.48 19.13C210.48 18.52 210.565 17.965 210.735 17.465C210.905 16.965 211.145 16.54 211.455 16.19C211.765 15.83 212.14 15.555 212.58 15.365C213.02 15.175 213.505 15.08 214.035 15.08C214.565 15.08 215.05 15.175 215.49 15.365C215.93 15.555 216.305 15.83 216.615 16.19C216.925 16.54 217.165 16.965 217.335 17.465C217.505 17.965 217.59 18.52 217.59 19.13C217.59 19.75 217.505 20.31 217.335 20.81C217.165 21.3 216.925 21.725 216.615 22.085C216.305 22.435 215.93 22.705 215.49 22.895C215.05 23.085 214.565 23.18 214.035 23.18ZM229.882 23H219.007V22.31H220.117V15.935H219.007V15.26H222.322V15.935H221.347V22.265H224.182V15.935H223.207V15.26H226.387V15.935H225.412V22.265H228.247V15.935H227.272V15.26H230.587V15.935H229.477V22.265H230.992V25.25H229.882V23ZM232.279 22.31H233.389V15.935H232.279V15.26H235.729V15.935H234.619V18.26H236.599C237.399 18.26 238.009 18.465 238.429 18.875C238.849 19.275 239.059 19.855 239.059 20.615C239.059 21.365 238.839 21.95 238.399 22.37C237.969 22.79 237.364 23 236.584 23H232.279V22.31ZM236.404 22.265C236.854 22.265 237.184 22.14 237.394 21.89C237.604 21.63 237.709 21.305 237.709 20.915V20.345C237.709 19.945 237.604 19.62 237.394 19.37C237.184 19.12 236.854 18.995 236.404 18.995H234.619V22.265H236.404ZM247.954 23.18C246.984 23.18 246.209 22.855 245.629 22.205C245.049 21.545 244.729 20.625 244.669 19.445H242.749V22.31H243.859V23H240.409V22.31H241.519V15.935H240.409V15.26H243.859V15.935H242.749V18.71H244.684C244.754 17.56 245.074 16.67 245.644 16.04C246.224 15.4 246.989 15.08 247.939 15.08C248.439 15.08 248.894 15.175 249.304 15.365C249.714 15.545 250.059 15.81 250.339 16.16C250.629 16.5 250.849 16.925 250.999 17.435C251.159 17.935 251.239 18.5 251.239 19.13C251.239 20.41 250.944 21.405 250.354 22.115C249.764 22.825 248.964 23.18 247.954 23.18ZM247.954 22.445C248.624 22.445 249.104 22.225 249.394 21.785C249.694 21.345 249.844 20.75 249.844 20V18.26C249.844 17.51 249.694 16.915 249.394 16.475C249.104 16.035 248.624 15.815 247.954 15.815C247.284 15.815 246.799 16.035 246.499 16.475C246.209 16.915 246.064 17.51 246.064 18.26V20C246.064 20.75 246.209 21.345 246.499 21.785C246.799 22.225 247.284 22.445 247.954 22.445Z" fill="white"/>
<g clip-path="url(#clip0_21_7231)">
<path d="M280.994 8H261.006C261.003 8 261 8.00262 261 8.00586V27.9941C261 27.9974 261.003 28 261.006 28H280.994C280.997 28 281 27.9974 281 27.9941V8.00586C281 8.00262 280.997 8 280.994 8Z" fill="#5281B8"/>
<path d="M271.703 22.1797C271.898 22.1407 272.25 22.0625 272.25 21.5938C272.25 21.5938 272.211 20.4219 272.758 20.2657C273.305 20.1094 274.008 21.3985 274.75 21.9063C275.297 22.2579 275.727 22.2188 275.727 22.2188L277.719 22.1797C277.719 22.1797 278.734 22.1016 278.266 21.2813C278.227 21.2032 277.914 20.6954 276.742 19.6407C275.531 18.4688 275.727 18.6641 277.172 16.6719C278.07 15.461 278.461 14.7188 278.344 14.4454C278.188 14.1719 277.563 14.211 277.563 14.211H275.336C275.102 14.211 274.984 14.25 274.867 14.4454C274.867 14.4454 274.516 15.4219 274.047 16.2032C273.07 17.8829 272.68 17.961 272.484 17.8438C272.133 17.6485 272.211 16.9063 272.211 16.3985C272.211 14.6407 272.484 14.0157 271.703 13.8594C271.195 13.7813 269.398 13.7032 268.852 13.9766C268.578 14.1329 268.422 14.4063 268.539 14.4454C268.656 14.4454 269.008 14.4844 269.203 14.7188C269.516 15.2266 269.555 17.6485 269.125 17.8829C268.539 18.3125 267.055 15.461 266.703 14.5235C266.625 14.2891 266.508 14.25 266.234 14.1719H264.086C263.852 14.1719 263.5 14.211 263.656 14.6797C264.711 16.8672 266.898 22.2188 270.844 22.1797H271.703Z" fill="white"/>
</g>
</g>
<defs>
<filter id="filter0_d_21_7231" x="0" y="0" width="294" height="43" filterUnits="userSpaceOnUse" color-interpolation-filters="sRGB">
<feFlood flood-opacity="0" result="BackgroundImageFix"/>
<feColorMatrix in="SourceAlpha" type="matrix" values="0 0 0 0 0 0 0 0 0 0 0 0 0 0 0 0 0 0 127 0" result="hardAlpha"/>
<feOffset dy="4"/>
<feGaussianBlur stdDeviation="2"/>
<feComposite in2="hardAlpha" operator="out"/>
<feColorMatrix type="matrix" values="0 0 0 0 0 0 0 0 0 0 0 0 0 0 0 0 0 0 0.25 0"/>
<feBlend mode="normal" in2="BackgroundImageFix" result="effect1_dropShadow_21_7231"/>
<feBlend mode="normal" in="SourceGraphic" in2="effect1_dropShadow_21_7231" result="shape"/>
</filter>
<clipPath id="clip0_21_7231">
<rect width="20" height="20" fill="white" transform="translate(261 8)"/>
</clipPath>
</defs>
</svg>
