<svg width="294" height="43" viewBox="0 0 294 43" fill="none" xmlns="http://www.w3.org/2000/svg">
<g filter="url(#filter0_d_21_10822)">
<rect x="4" width="286" height="35" rx="4" fill="white"/>
<path d="M66.5115 22.31H67.6365V13.22H66.5115V12.53H71.5215C72.4015 12.53 73.0865 12.755 73.5765 13.205C74.0765 13.655 74.3265 14.255 74.3265 15.005C74.3265 15.375 74.2715 15.705 74.1615 15.995C74.0515 16.285 73.9015 16.535 73.7115 16.745C73.5315 16.955 73.3215 17.125 73.0815 17.255C72.8515 17.385 72.6115 17.47 72.3615 17.51V17.555C72.6215 17.575 72.8915 17.64 73.1715 17.75C73.4515 17.86 73.7065 18.02 73.9365 18.23C74.1665 18.44 74.3565 18.7 74.5065 19.01C74.6565 19.32 74.7315 19.68 74.7315 20.09C74.7315 20.53 74.6615 20.93 74.5215 21.29C74.3915 21.65 74.2015 21.96 73.9515 22.22C73.7115 22.47 73.4215 22.665 73.0815 22.805C72.7415 22.935 72.3715 23 71.9715 23H66.5115V22.31ZM68.9265 22.265H71.5065C72.0865 22.265 72.5365 22.095 72.8565 21.755C73.1865 21.415 73.3515 20.975 73.3515 20.435V19.775C73.3515 19.245 73.1865 18.81 72.8565 18.47C72.5365 18.13 72.0865 17.96 71.5065 17.96H68.9265V22.265ZM68.9265 17.225H71.2665C71.8065 17.225 72.2215 17.07 72.5115 16.76C72.8015 16.45 72.9465 16.055 72.9465 15.575V14.915C72.9465 14.435 72.8015 14.04 72.5115 13.73C72.2215 13.42 71.8065 13.265 71.2665 13.265H68.9265V17.225ZM79.9654 22.445C80.3354 22.445 80.6554 22.385 80.9254 22.265C81.2054 22.135 81.4304 21.96 81.6004 21.74C81.7804 21.51 81.9104 21.245 81.9904 20.945C82.0804 20.635 82.1254 20.3 82.1254 19.94V18.32C82.1254 17.96 82.0804 17.63 81.9904 17.33C81.9104 17.02 81.7804 16.755 81.6004 16.535C81.4304 16.305 81.2054 16.13 80.9254 16.01C80.6554 15.88 80.3354 15.815 79.9654 15.815C79.5854 15.815 79.2604 15.88 78.9904 16.01C78.7204 16.13 78.4954 16.305 78.3154 16.535C78.1454 16.755 78.0154 17.02 77.9254 17.33C77.8454 17.63 77.8054 17.96 77.8054 18.32V19.94C77.8054 20.3 77.8454 20.635 77.9254 20.945C78.0154 21.245 78.1454 21.51 78.3154 21.74C78.4954 21.96 78.7204 22.135 78.9904 22.265C79.2604 22.385 79.5854 22.445 79.9654 22.445ZM79.9654 23.18C79.4354 23.18 78.9504 23.085 78.5104 22.895C78.0704 22.705 77.6954 22.435 77.3854 22.085C77.0754 21.725 76.8354 21.3 76.6654 20.81C76.4954 20.31 76.4104 19.75 76.4104 19.13C76.4104 18.52 76.4954 17.965 76.6654 17.465C76.8354 16.965 77.0754 16.54 77.3854 16.19C77.6954 15.83 78.0704 15.555 78.5104 15.365C78.9504 15.175 79.4354 15.08 79.9654 15.08C80.4954 15.08 80.9804 15.175 81.4204 15.365C81.8604 15.555 82.2354 15.83 82.5454 16.19C82.8554 16.54 83.0954 16.965 83.2654 17.465C83.4354 17.965 83.5204 18.52 83.5204 19.13C83.5204 19.75 83.4354 20.31 83.2654 20.81C83.0954 21.3 82.8554 21.725 82.5454 22.085C82.2354 22.435 81.8604 22.705 81.4204 22.895C80.9804 23.085 80.4954 23.18 79.9654 23.18ZM84.9375 22.31H86.0475V15.935H84.9375V15.26H88.3575V15.935H87.2475V18.77L87.1125 20.855H87.1575L91.0275 16.385V15.935H89.9175V15.26H93.3375V15.935H92.2275V22.31H93.3375V23H89.9175V22.31H91.0275V19.505L91.1625 17.405H91.1025L87.2475 21.875V22.31H88.3575V23H84.9375V22.31ZM89.1375 14.045C88.7175 14.045 88.3575 14 88.0575 13.91C87.7675 13.81 87.5225 13.685 87.3225 13.535C87.1325 13.385 86.9925 13.215 86.9025 13.025C86.8125 12.825 86.7675 12.62 86.7675 12.41C86.7675 12.15 86.8375 11.955 86.9775 11.825C87.1175 11.685 87.3025 11.615 87.5325 11.615C87.7625 11.615 87.9425 11.68 88.0725 11.81C88.2025 11.94 88.2675 12.125 88.2675 12.365C88.2675 12.565 88.2125 12.725 88.1025 12.845C87.9925 12.955 87.8675 13.035 87.7275 13.085V13.115C87.8975 13.205 88.1025 13.27 88.3425 13.31C88.5825 13.35 88.8475 13.37 89.1375 13.37C89.4275 13.37 89.6925 13.35 89.9325 13.31C90.1725 13.27 90.3775 13.205 90.5475 13.115V13.085C90.4075 13.035 90.2825 12.955 90.1725 12.845C90.0625 12.725 90.0075 12.565 90.0075 12.365C90.0075 12.125 90.0725 11.94 90.2025 11.81C90.3325 11.68 90.5125 11.615 90.7425 11.615C90.9725 11.615 91.1575 11.685 91.2975 11.825C91.4375 11.955 91.5075 12.15 91.5075 12.41C91.5075 12.62 91.4625 12.825 91.3725 13.025C91.2825 13.215 91.1375 13.385 90.9375 13.535C90.7475 13.685 90.5025 13.81 90.2025 13.91C89.9125 14 89.5575 14.045 89.1375 14.045ZM95.9798 22.31H97.3898V15.995H95.4998V17.54H94.5998V15.26H101.41V17.54H100.51V15.995H98.6198V22.31H100.03V23H95.9798V22.31ZM102.677 22.31H103.787V15.935H102.677V15.26H106.097V15.935H104.987V18.77L104.852 20.855H104.897L108.767 16.385V15.935H107.657V15.26H111.077V15.935H109.967V22.31H111.077V23H107.657V22.31H108.767V19.505L108.902 17.405H108.842L104.987 21.875V22.31H106.097V23H102.677V22.31ZM119.515 23.18C118.955 23.18 118.455 23.085 118.015 22.895C117.585 22.695 117.22 22.42 116.92 22.07C116.62 21.71 116.39 21.285 116.23 20.795C116.07 20.295 115.99 19.74 115.99 19.13C115.99 18.51 116.075 17.95 116.245 17.45C116.425 16.95 116.675 16.525 116.995 16.175C117.315 15.825 117.695 15.555 118.135 15.365C118.585 15.175 119.08 15.08 119.62 15.08C120.43 15.08 121.07 15.255 121.54 15.605C122.02 15.945 122.26 16.38 122.26 16.91C122.26 17.23 122.175 17.48 122.005 17.66C121.845 17.84 121.62 17.93 121.33 17.93C121.02 17.93 120.79 17.84 120.64 17.66C120.49 17.48 120.415 17.265 120.415 17.015C120.415 16.795 120.47 16.605 120.58 16.445C120.69 16.285 120.845 16.16 121.045 16.07V16.025C120.915 15.945 120.745 15.885 120.535 15.845C120.335 15.805 120.075 15.785 119.755 15.785C119.405 15.785 119.08 15.85 118.78 15.98C118.49 16.11 118.24 16.295 118.03 16.535C117.82 16.765 117.655 17.04 117.535 17.36C117.415 17.67 117.355 18.01 117.355 18.38V19.49C117.355 19.9 117.41 20.275 117.52 20.615C117.63 20.945 117.785 21.23 117.985 21.47C118.195 21.71 118.44 21.895 118.72 22.025C119.01 22.155 119.335 22.22 119.695 22.22C120.305 22.22 120.785 22.095 121.135 21.845C121.485 21.585 121.765 21.25 121.975 20.84L122.455 21.155C122.365 21.415 122.235 21.67 122.065 21.92C121.895 22.16 121.69 22.375 121.45 22.565C121.21 22.745 120.925 22.89 120.595 23C120.275 23.12 119.915 23.18 119.515 23.18ZM127.286 22.31H128.396V15.935H127.286V15.26H135.701V15.935H134.591V22.31H135.701V23H132.251V22.31H133.361V15.995H129.626V22.31H130.736V23H127.286V22.31ZM140.683 22.445C141.053 22.445 141.373 22.385 141.643 22.265C141.923 22.135 142.148 21.96 142.318 21.74C142.498 21.51 142.628 21.245 142.708 20.945C142.798 20.635 142.843 20.3 142.843 19.94V18.32C142.843 17.96 142.798 17.63 142.708 17.33C142.628 17.02 142.498 16.755 142.318 16.535C142.148 16.305 141.923 16.13 141.643 16.01C141.373 15.88 141.053 15.815 140.683 15.815C140.303 15.815 139.978 15.88 139.708 16.01C139.438 16.13 139.213 16.305 139.033 16.535C138.863 16.755 138.733 17.02 138.643 17.33C138.563 17.63 138.523 17.96 138.523 18.32V19.94C138.523 20.3 138.563 20.635 138.643 20.945C138.733 21.245 138.863 21.51 139.033 21.74C139.213 21.96 139.438 22.135 139.708 22.265C139.978 22.385 140.303 22.445 140.683 22.445ZM140.683 23.18C140.153 23.18 139.668 23.085 139.228 22.895C138.788 22.705 138.413 22.435 138.103 22.085C137.793 21.725 137.553 21.3 137.383 20.81C137.213 20.31 137.128 19.75 137.128 19.13C137.128 18.52 137.213 17.965 137.383 17.465C137.553 16.965 137.793 16.54 138.103 16.19C138.413 15.83 138.788 15.555 139.228 15.365C139.668 15.175 140.153 15.08 140.683 15.08C141.213 15.08 141.698 15.175 142.138 15.365C142.578 15.555 142.953 15.83 143.263 16.19C143.573 16.54 143.813 16.965 143.983 17.465C144.153 17.965 144.238 18.52 144.238 19.13C144.238 19.75 144.153 20.31 143.983 20.81C143.813 21.3 143.573 21.725 143.263 22.085C142.953 22.435 142.578 22.705 142.138 22.895C141.698 23.085 141.213 23.18 140.683 23.18ZM145.655 22.31H146.78V15.935H145.655V15.26H148.385L150.605 19.7H150.665L152.87 15.26H155.45V15.935H154.34V22.31H155.45V23H151.985V22.31H153.11V16.4H153.065L152.51 17.54L150.395 21.8L148.25 17.54L147.71 16.4H147.665V22.31H148.775V23H145.655V22.31ZM160.429 22.445C160.799 22.445 161.119 22.385 161.389 22.265C161.669 22.135 161.894 21.96 162.064 21.74C162.244 21.51 162.374 21.245 162.454 20.945C162.544 20.635 162.589 20.3 162.589 19.94V18.32C162.589 17.96 162.544 17.63 162.454 17.33C162.374 17.02 162.244 16.755 162.064 16.535C161.894 16.305 161.669 16.13 161.389 16.01C161.119 15.88 160.799 15.815 160.429 15.815C160.049 15.815 159.724 15.88 159.454 16.01C159.184 16.13 158.959 16.305 158.779 16.535C158.609 16.755 158.479 17.02 158.389 17.33C158.309 17.63 158.269 17.96 158.269 18.32V19.94C158.269 20.3 158.309 20.635 158.389 20.945C158.479 21.245 158.609 21.51 158.779 21.74C158.959 21.96 159.184 22.135 159.454 22.265C159.724 22.385 160.049 22.445 160.429 22.445ZM160.429 23.18C159.899 23.18 159.414 23.085 158.974 22.895C158.534 22.705 158.159 22.435 157.849 22.085C157.539 21.725 157.299 21.3 157.129 20.81C156.959 20.31 156.874 19.75 156.874 19.13C156.874 18.52 156.959 17.965 157.129 17.465C157.299 16.965 157.539 16.54 157.849 16.19C158.159 15.83 158.534 15.555 158.974 15.365C159.414 15.175 159.899 15.08 160.429 15.08C160.959 15.08 161.444 15.175 161.884 15.365C162.324 15.555 162.699 15.83 163.009 16.19C163.319 16.54 163.559 16.965 163.729 17.465C163.899 17.965 163.984 18.52 163.984 19.13C163.984 19.75 163.899 20.31 163.729 20.81C163.559 21.3 163.319 21.725 163.009 22.085C162.699 22.435 162.324 22.705 161.884 22.895C161.444 23.085 160.959 23.18 160.429 23.18ZM176.276 23H165.401V22.31H166.511V15.935H165.401V15.26H168.716V15.935H167.741V22.265H170.576V15.935H169.601V15.26H172.781V15.935H171.806V22.265H174.641V15.935H173.666V15.26H176.981V15.935H175.871V22.265H177.386V25.25H176.276V23ZM178.673 22.31H179.783V15.935H178.673V15.26H182.123V15.935H181.013V18.26H182.993C183.793 18.26 184.403 18.465 184.823 18.875C185.243 19.275 185.453 19.855 185.453 20.615C185.453 21.365 185.233 21.95 184.793 22.37C184.363 22.79 183.758 23 182.978 23H178.673V22.31ZM182.798 22.265C183.248 22.265 183.578 22.14 183.788 21.89C183.998 21.63 184.103 21.305 184.103 20.915V20.345C184.103 19.945 183.998 19.62 183.788 19.37C183.578 19.12 183.248 18.995 182.798 18.995H181.013V22.265H182.798ZM194.348 23.18C193.378 23.18 192.603 22.855 192.023 22.205C191.443 21.545 191.123 20.625 191.063 19.445H189.143V22.31H190.253V23H186.803V22.31H187.913V15.935H186.803V15.26H190.253V15.935H189.143V18.71H191.078C191.148 17.56 191.468 16.67 192.038 16.04C192.618 15.4 193.383 15.08 194.333 15.08C194.833 15.08 195.288 15.175 195.698 15.365C196.108 15.545 196.453 15.81 196.733 16.16C197.023 16.5 197.243 16.925 197.393 17.435C197.553 17.935 197.633 18.5 197.633 19.13C197.633 20.41 197.338 21.405 196.748 22.115C196.158 22.825 195.358 23.18 194.348 23.18ZM194.348 22.445C195.018 22.445 195.498 22.225 195.788 21.785C196.088 21.345 196.238 20.75 196.238 20V18.26C196.238 17.51 196.088 16.915 195.788 16.475C195.498 16.035 195.018 15.815 194.348 15.815C193.678 15.815 193.193 16.035 192.893 16.475C192.603 16.915 192.458 17.51 192.458 18.26V20C192.458 20.75 192.603 21.345 192.893 21.785C193.193 22.225 193.678 22.445 194.348 22.445Z" fill="#696969"/>
<path d="M277.675 9.25H275.175C272.675 9.25 270.131 11.125 270.131 15.2625C270.079 16.2215 270.293 17.1763 270.75 18.0212C271.206 18.8662 271.888 19.5683 272.719 20.05L269.625 25.5812C269.554 25.7015 269.517 25.8385 269.517 25.9781C269.517 26.1177 269.554 26.2548 269.625 26.375C269.689 26.4851 269.78 26.5772 269.889 26.6428C269.999 26.7083 270.123 26.7452 270.25 26.75H271.806C271.964 26.7577 272.121 26.7169 272.255 26.6331C272.389 26.5493 272.494 26.4266 272.556 26.2812L275.425 20.6562H275.638V26.0438C275.638 26.14 275.658 26.2352 275.697 26.3234C275.735 26.4117 275.791 26.4912 275.862 26.5572C275.932 26.6232 276.014 26.6743 276.105 26.7075C276.195 26.7406 276.291 26.7551 276.388 26.75H277.75C277.934 26.7568 278.113 26.6912 278.248 26.5672C278.384 26.4433 278.465 26.271 278.475 26.0875V10.0125C278.478 9.91482 278.461 9.81761 278.426 9.72642C278.391 9.63522 278.338 9.55184 278.27 9.48103C278.203 9.41022 278.123 9.35337 278.033 9.31373C277.944 9.27409 277.848 9.25243 277.75 9.25H277.675ZM275.688 18.175H275.319C273.881 18.175 273.031 17.0062 273.031 15.05C273.031 12.6125 274.113 11.7437 275.119 11.7437H275.706L275.688 18.175Z" fill="#D61E3B"/>
</g>
<defs>
<filter id="filter0_d_21_10822" x="0" y="0" width="294" height="43" filterUnits="userSpaceOnUse" color-interpolation-filters="sRGB">
<feFlood flood-opacity="0" result="BackgroundImageFix"/>
<feColorMatrix in="SourceAlpha" type="matrix" values="0 0 0 0 0 0 0 0 0 0 0 0 0 0 0 0 0 0 127 0" result="hardAlpha"/>
<feOffset dy="4"/>
<feGaussianBlur stdDeviation="2"/>
<feComposite in2="hardAlpha" operator="out"/>
<feColorMatrix type="matrix" values="0 0 0 0 0 0 0 0 0 0 0 0 0 0 0 0 0 0 0.25 0"/>
<feBlend mode="normal" in2="BackgroundImageFix" result="effect1_dropShadow_21_10822"/>
<feBlend mode="normal" in="SourceGraphic" in2="effect1_dropShadow_21_10822" result="shape"/>
</filter>
</defs>
</svg>
